<?xml version="1.0" encoding="UTF-8" standalone="no"?>
<!-- Created with Inkscape (http://www.inkscape.org/) -->

<svg
   xmlns:dc="http://purl.org/dc/elements/1.1/"
   xmlns:cc="http://creativecommons.org/ns#"
   xmlns:rdf="http://www.w3.org/1999/02/22-rdf-syntax-ns#"
   xmlns:svg="http://www.w3.org/2000/svg"
   xmlns="http://www.w3.org/2000/svg"
   xmlns:sodipodi="http://sodipodi.sourceforge.net/DTD/sodipodi-0.dtd"
   xmlns:inkscape="http://www.inkscape.org/namespaces/inkscape"
   width="48"
   height="48"
   id="svg2"
   version="1.1"
   inkscape:version="0.48.4 r9939"
   inkscape:export-filename="/home/mbaerts/Documents/SINF/SINF13BA/FSAB1509 - Projet 4/workspace/lfsab1509-2013-grp07/Bouboule-android/assets_NHD/skin/checkboxoff.png"
   inkscape:export-xdpi="90"
   inkscape:export-ydpi="90"
   sodipodi:docname="Nouveau document 1">
  <defs
     id="defs4" />
  <sodipodi:namedview
     id="base"
     pagecolor="#ffffff"
     bordercolor="#666666"
     borderopacity="1.0"
     inkscape:pageopacity="0.0"
     inkscape:pageshadow="2"
     inkscape:zoom="22.4"
     inkscape:cx="19.466863"
     inkscape:cy="32.650776"
     inkscape:document-units="px"
     inkscape:current-layer="layer1"
     showgrid="false"
     inkscape:window-width="1366"
     inkscape:window-height="768"
     inkscape:window-x="0"
     inkscape:window-y="0"
     inkscape:window-maximized="1" />
  <metadata
     id="metadata7">
    <rdf:RDF>
      <cc:Work
         rdf:about="">
        <dc:format>image/svg+xml</dc:format>
        <dc:type
           rdf:resource="http://purl.org/dc/dcmitype/StillImage" />
        <dc:title></dc:title>
      </cc:Work>
    </rdf:RDF>
  </metadata>
  <g
     inkscape:label="Calque 1"
     inkscape:groupmode="layer"
     id="layer1"
     transform="translate(0,-1004.3622)">
    <path
       inkscape:connector-curvature="0"
       id="path3039"
       d="m 4.1285702,1045.2337 c -0.8169129,-0.8169 -1.2,-5.5874 -1.2,-14.9433 0,-17.3951 -0.5270037,-16.8567 16.4999998,-16.8567 17.027004,0 16.5,-0.5384 16.5,16.8567 0,9.3559 -0.383087,14.1264 -1.2,14.9433 -1.672194,1.6722 -28.9278059,1.6722 -30.5999998,0 z m 27.7999998,-15.3 0,-12.5 -12.5,0 -12.4999998,0 0,12.5 0,12.5 12.4999998,0 12.5,0 0,-12.5 z"
       style="fill:#000000;fill-opacity:0.19662924" />
    <path
       inkscape:connector-curvature="0"
       id="path3037"
       d="m 3.963754,1044.4994 c -0.5693511,-1.0638 -1.0351838,-7.5567 -1.0351838,-14.4285 0,-10.0252 0.3105525,-12.8049 1.5714286,-14.0658 1.2759526,-1.2759 4.1528138,-1.5714 15.3000002,-1.5714 9.344444,0 14.111783,0.3832 14.928571,1.2 1.669242,1.6692 1.669242,27.9308 0,29.6 -0.821169,0.8212 -5.703292,1.2 -15.464816,1.2 -13.0797499,0 -14.3508154,-0.1607 -15.3,-1.9343 z m 28.464816,-14.0657 0,-12.5 -12.75,-0.2799 -12.7499998,-0.2799 0,13.0598 0,13.0598 12.7499998,-0.2799 12.75,-0.2799 0,-12.5 z"
       style="fill:#000000;fill-opacity:0.25280899" />
    <path
       inkscape:connector-curvature="0"
       id="path3035"
       d="m 5.1285702,1045.2337 c -0.8206018,-0.8206 -1.2,-5.6873 -1.2,-15.393 0,-12.0197 0.2422142,-14.286 1.5817875,-14.8 0.8699831,-0.3339 7.6041503,-0.607 14.9648163,-0.607 12.207952,0 13.473921,0.1698 14.418212,1.9343 0.569351,1.0638 1.035184,7.5567 1.035184,14.4285 0,10.0252 -0.310552,12.8049 -1.571429,14.0658 -1.270184,1.2702 -4.107359,1.5714 -14.8,1.5714 -8.955555,0 -13.6161878,-0.3876 -14.4285708,-1.2 z m 27.2999998,-14.8 0,-12.5 -12.75,-0.2799 -12.7499998,-0.2799 0,13.0598 0,13.0598 12.7499998,-0.2799 12.75,-0.2799 0,-12.5 z"
       style="fill:#000000;fill-opacity:0.5" />
    <path
       inkscape:connector-curvature="0"
       id="path3033"
       d="m 5.1285702,1045.2337 c -1.6692422,-1.6692 -1.6692422,-27.9308 0,-29.6 0.812383,-0.8124 5.4730158,-1.2 14.4285708,-1.2 10.692641,0 13.529816,0.3012 14.8,1.5714 1.264543,1.2646 1.571429,4.066 1.571429,14.345 0,16.6668 0.60301,16.0836 -16.628741,16.0836 -8.755424,0 -13.3612751,-0.39 -14.1712588,-1.2 z m 27.5800948,-15.0792 0.280095,-12.7793 -13.280095,0.2793 -13.2800948,0.2792 -0.2845175,11.4389 c -0.1564846,6.2913 -0.052923,12.0423 0.230137,12.78 0.4012115,1.0455 3.3294575,1.2794 13.2845173,1.0611 l 12.769863,-0.28 0.280095,-12.7792 z"
       style="fill:#000000;fill-opacity:0.86516849" />
    <path
       inkscape:connector-curvature="0"
       id="path3031"
       d="m 5.6785702,1045.3536 c -1.5324015,-0.8925 -1.75,-2.729 -1.75,-14.7696 0,-9.3613 0.3830277,-14.1333 1.2,-14.9503 1.6660637,-1.6661 26.9339358,-1.6661 28.5999998,0 0.817095,0.8171 1.2,5.5922 1.2,14.9648 0,12.5854 -0.165732,13.8535 -1.934259,14.8 -2.48946,1.3323 -25.0147645,1.2953 -27.3157408,-0.045 z M 32.92857,1030.5407 c 0,-10.8343 -0.252581,-12.9899 -1.581787,-13.5 -2.05775,-0.7896 -21.778676,-0.7896 -23.8364253,0 -1.3230358,0.5077 -1.5817875,2.607 -1.5817875,12.8333 0,6.7245 0.3,12.5264 0.6666667,12.893 0.3666666,0.3667 6.4416661,0.6667 13.5000001,0.6667 l 12.833333,0 0,-12.893 z"
       style="fill:#000000;fill-opacity:0.69662924" />
    <path
       inkscape:connector-curvature="0"
       id="path3029"
       d="m 6.9285702,1045.7048 c -2.6685801,-1.0158 -2.9691335,-2.5716 -2.9846872,-15.4497 -0.012328,-10.2072 0.2909948,-12.9848 1.5561158,-14.25 1.2639623,-1.2639 4.0619047,-1.5714 14.3000002,-1.5714 8.566666,0 13.120939,0.3924 13.928571,1.2 0.817095,0.8171 1.2,5.5922 1.2,14.9648 0,12.5854 -0.165732,13.8535 -1.934259,14.8 -1.99688,1.0687 -23.4021518,1.3202 -26.0657408,0.3063 z m 25.7790248,-15.5211 -0.279025,-13.25 -11,-0.2909 c -16.7364952,-0.4425 -15.4999998,-1.5442 -15.4999998,13.81 l 0,12.9809 13.5290248,0 13.529025,0 -0.279025,-13.25 z"
       style="fill:#000000;fill-opacity:0.94509804" />
    <path
       inkscape:connector-curvature="0"
       id="path3027"
       d="m 4.5455603,1043.878 c -0.3393445,-0.8843 -0.6169901,-7.1639 -0.6169901,-13.9547 0,-9.891 0.3125562,-12.6593 1.5714286,-13.9182 2.0438342,-2.0438 25.0456012,-2.3031 27.7672342,-0.313 1.510733,1.1046 1.686749,2.9672 1.44113,15.25 l -0.949436,13.0987 -13.963367,1.169 c -12.6427836,1.0584 -14.7151564,0.062 -15.2499997,-1.3318 z m 28.1830097,-0.6443 c 1.687249,-1.6872 1.636397,-22.8209 -0.0605,-25.1416 -1.097389,-1.5007 -2.876623,-1.6872 -13.75,-1.4411 l -12.4894998,0.2827 -0.2823402,12.4445 c -0.1552871,6.8445 -0.05691,13.032 0.2186152,13.75 0.6803934,1.7731 24.6004238,1.8688 26.3637248,0.1055 z"
       style="fill:#010101"
       sodipodi:nodetypes="csccscscccscssc" />
  </g>
</svg>
