<?xml version="1.0" encoding="UTF-8" standalone="no"?>
<!-- Created with Inkscape (http://www.inkscape.org/) -->

<svg
   xmlns:dc="http://purl.org/dc/elements/1.1/"
   xmlns:cc="http://creativecommons.org/ns#"
   xmlns:rdf="http://www.w3.org/1999/02/22-rdf-syntax-ns#"
   xmlns:svg="http://www.w3.org/2000/svg"
   xmlns="http://www.w3.org/2000/svg"
   xmlns:sodipodi="http://sodipodi.sourceforge.net/DTD/sodipodi-0.dtd"
   xmlns:inkscape="http://www.inkscape.org/namespaces/inkscape"
   width="48"
   height="48"
   id="svg3835"
   version="1.1"
   inkscape:version="0.48.4 r9939"
   sodipodi:docname="Nouveau document 6">
  <defs
     id="defs3837" />
  <sodipodi:namedview
     id="base"
     pagecolor="#ffffff"
     bordercolor="#666666"
     borderopacity="1.0"
     inkscape:pageopacity="0.0"
     inkscape:pageshadow="2"
     inkscape:zoom="11.2"
     inkscape:cx="25.095109"
     inkscape:cy="27.145627"
     inkscape:document-units="px"
     inkscape:current-layer="layer1"
     showgrid="false"
     inkscape:window-width="1366"
     inkscape:window-height="768"
     inkscape:window-x="0"
     inkscape:window-y="0"
     inkscape:window-maximized="1" />
  <metadata
     id="metadata3840">
    <rdf:RDF>
      <cc:Work
         rdf:about="">
        <dc:format>image/svg+xml</dc:format>
        <dc:type
           rdf:resource="http://purl.org/dc/dcmitype/StillImage" />
        <dc:title></dc:title>
      </cc:Work>
    </rdf:RDF>
  </metadata>
  <g
     inkscape:label="Calque 1"
     inkscape:groupmode="layer"
     id="layer1"
     transform="translate(0,-1004.3622)">
    <path
       inkscape:connector-curvature="0"
       id="path3927"
       d="M 4.2,1045.1622 C 3.3828027,1044.345 3,1039.5673 3,1030.1853 c 0,-17.5792 -0.6480895,-16.9752 17.988416,-16.7633 8.497937,0.097 13.595346,-0.2436 14.306616,-0.9548 0.607733,-0.6078 2.159152,-1.105 3.4476,-1.105 l 2.342632,0 -2.655602,3.3282 c -2.585467,3.2402 -2.651259,3.665 -2.491154,16.0855 0.109829,8.5202 -0.225449,13.2271 -1.009475,14.1718 -1.55522,1.8739 -28.878877,2.0647 -30.729033,0.2145 z m 27.8,-12.359 c 0,-5.664 -0.380369,-9.324 -0.933495,-8.9821 -0.513423,0.3173 -3.274221,4.3939 -6.135107,9.059 -2.860886,4.6652 -5.478314,8.4563 -5.816505,8.4247 -0.338191,-0.032 -3.004647,-3.4758 -5.925457,-7.6537 -4.6224155,-6.612 -5.1239472,-7.783 -3.8704119,-9.0365 1.2535349,-1.2535 1.9793119,-1.0833 5.6009509,1.3133 2.400379,1.5885 4.501463,2.3687 4.965968,1.8439 0.442843,-0.5003 2.731981,-3.0471 5.086973,-5.6596 l 4.281804,-4.75 -11.12736,0 -11.12736,0 0,12.5 0,12.5 12.5,0 12.5,0 0,-9.559 z"
       style="fill:#000000;fill-opacity:0.03932584" />
    <path
       inkscape:connector-curvature="0"
       id="path3925"
       d="m 4.0351838,1044.4279 c -1.3601837,-2.5415 -1.3398603,-25.6279 0.024805,-28.1778 0.984596,-1.8397 2.0469398,-1.9701 14.9359872,-1.8327 11.278229,0.1202 14.304065,-0.1519 16.162518,-1.4537 1.257585,-0.8808 3.170582,-1.6015 4.251103,-1.6015 1.763052,0 1.677889,0.2992 -0.830188,2.9171 -2.776736,2.8983 -2.793792,2.9982 -2.642534,15.4825 0.08953,7.3892 -0.292546,13.3965 -0.927501,14.5829 -1.006283,1.8802 -2.061441,2.0175 -15.509374,2.0175 -13.2426993,0 -14.5147838,-0.1591 -15.4648167,-1.9343 z m 27.7533682,-11.5097 c 0.158703,-5.4692 0.776303,-10.5317 1.372445,-11.25 0.596141,-0.7183 0.787275,-1.306 0.424743,-1.306 -0.362531,0 -3.751563,4.7507 -7.531182,10.5571 l -6.872033,10.5571 -4.436486,-6.3071 c -6.0294607,-8.5717 -6.0848337,-8.694 -4.696828,-10.3664 1.056998,-1.2736 1.665277,-1.1331 4.519368,1.0438 1.813887,1.3835 3.665502,2.5098 4.114699,2.5029 0.449197,-0.01 2.982372,-2.482 5.629278,-5.5 l 4.812557,-5.4874 -11.062557,0 -11.062556,0 0,12.3333 c 0,6.7834 0.3135151,12.6469 0.6967002,13.0301 0.3831852,0.3832 5.8956848,0.5707 12.2499998,0.4166 l 11.5533,-0.28 0.288552,-9.944 z"
       style="fill:#000000;fill-opacity:0.11235955" />
    <path
       inkscape:connector-curvature="0"
       id="path3923"
       d="M 4.0351838,1044.4279 C 3.4658327,1043.3641 3,1036.8712 3,1029.9994 c 0,-10.0252 0.3105525,-12.8049 1.5714286,-14.0658 2.0756466,-2.0756 28.0456144,-2.3873 26.7820984,-0.3214 -0.420479,0.6875 0.712489,0.012 2.517708,-1.5 1.805219,-1.5125 4.178592,-2.75 5.274163,-2.75 1.645921,0 1.1315,0.9988 -2.961332,5.75 -4.402394,5.1105 -13.153431,17.5684 -15.872723,22.5962 -0.87607,1.6198 -1.570603,1.0445 -5.664042,-4.692 -2.566044,-3.596 -4.9331212,-7.2355 -5.2601718,-8.0877 -1.0771153,-2.807 2.4611698,-2.9196 6.0369518,-0.1922 l 3.403671,2.5961 5.185068,-5.9852 5.185069,-5.9852 -11.098945,0 -11.098944,0 0,13.0299 0,13.0299 12.75,-0.2799 12.75,-0.2799 0.282866,-10.6548 c 0.209119,-7.877 0.665374,-10.9723 1.75,-11.8725 1.27528,-1.0584 1.467134,0.3109 1.467134,10.4706 0,6.4285 -0.465833,12.5586 -1.035184,13.6224 -0.950033,1.7752 -2.222117,1.9343 -15.464816,1.9343 -13.2426988,0 -14.5147833,-0.1591 -15.4648162,-1.9343 z"
       style="fill:#000000;fill-opacity:0.12921348" />
    <path
       inkscape:connector-curvature="0"
       id="path3921"
       d="m 5.2,1045.1622 c -0.8206018,-0.8206 -1.2,-5.6873 -1.2,-15.393 0,-12.0197 0.2422142,-14.286 1.5817875,-14.8 0.8699831,-0.3339 7.0000835,-0.607 13.6224445,-0.607 10.589424,0 11.890614,0.1808 10.795768,1.5 -0.96695,1.1651 -3.673458,1.5 -12.122445,1.5 l -10.877555,0 0,13.0299 0,13.0299 12.75,-0.2799 12.75,-0.2799 0.282866,-10.6548 c 0.209119,-7.877 0.665374,-10.9723 1.75,-11.8725 1.275612,-1.0586 1.467134,0.3447 1.467134,10.7499 0,15.7398 0.503329,15.2774 -16.628741,15.2774 -8.755424,0 -13.3612753,-0.39 -14.171259,-1.2 z m 9.29273,-10.4689 c -2.592375,-3.7084 -4.9354454,-7.3212 -5.2068235,-8.0284 -0.9968883,-2.5979 2.7545545,-2.5092 6.2375395,0.1474 l 3.503035,2.6719 2.597258,-3.0867 c 1.428492,-1.6977 3.335034,-3.9527 4.23676,-5.0111 3.266123,-3.8339 11.648641,-10.0242 13.574118,-10.0242 1.684532,0 1.457743,0.5455 -1.559096,3.75 -5.01972,5.332 -9.148986,10.8821 -14.240926,19.1409 l -4.428456,7.1828 -4.713409,-6.7426 z"
       style="fill:#000000;fill-opacity:0.2977528" />
    <path
       inkscape:connector-curvature="0"
       id="path3919"
       d="m 5.2,1045.1622 c -1.6692422,-1.6692 -1.6692422,-27.9308 0,-29.6 0.8045342,-0.8045 5.293877,-1.2 13.622445,-1.2 10.809004,0 12.26419,0.1907 11.203991,1.4681 -0.909067,1.0954 -4.050646,1.5398 -12.372445,1.75 L 6.5,1017.8622 l 0,12.5 0,12.5 13,0 13,0 0.282866,-10.6548 c 0.209119,-7.877 0.665374,-10.9723 1.75,-11.8725 1.27492,-1.0581 1.467134,0.276 1.467134,10.1823 0,16.2154 0.382342,15.845 -16.356704,15.845 -8.967008,0 -13.6307785,-0.3875 -14.443296,-1.2 z m 8.8,-11.5708 c -5.5852781,-8.3521 -5.4839981,-8.1062 -3.632089,-8.8169 0.856621,-0.3287 3.014893,0.5406 4.886729,1.9684 l 3.352501,2.557 9.097786,-8.9688 c 5.898132,-5.8146 9.871161,-8.9689 11.296772,-8.9689 1.932469,0 1.611124,0.6436 -2.651356,5.3105 -2.667689,2.9207 -7.550343,9.4387 -10.850343,14.4843 -3.3,5.0456 -6.225,9.1715 -6.5,9.1687 -0.275,0 -2.525,-3.0333 -5,-6.7343 z"
       style="fill:#000000;fill-opacity:0.22471911" />
    <path
       inkscape:connector-curvature="0"
       id="path3917"
       d="M 5.75,1045.2821 C 4.2175985,1044.3896 4,1042.5531 4,1030.5125 c 0,-9.3613 0.3830277,-14.1333 1.2,-14.9503 1.5229981,-1.523 26.238408,-1.7184 25.3,-0.2 -0.3504,0.567 -5.302903,1 -11.436572,1 -8.02284,0 -11.1170406,0.3597 -11.9736544,1.3918 -0.7683583,0.9258 -1.0604715,5.3622 -0.8724447,13.25 L 6.5,1042.8622 l 13.25,0.279 13.25,0.2791 0.01531,-10.2791 c 0.0084,-5.6534 0.451531,-10.954 0.984687,-11.779 0.655194,-1.0138 0.974337,2.4589 0.984687,10.7148 0.01387,11.0618 -0.167278,12.3126 -1.918946,13.25 -2.48946,1.3323 -25.0147647,1.2953 -27.315741,-0.045 z m 8.033255,-12.2195 c -5.4036549,-8.2106 -5.019129,-10.5219 1.05072,-6.3155 l 3.909579,2.7094 9.047142,-9.0472 c 4.975928,-4.9759 9.758628,-9.0471 10.628223,-9.0471 2.370554,0 1.881366,1.0954 -2.456128,5.5 -2.166501,2.2 -6.756925,8.3686 -10.200942,13.708 -3.444017,5.3394 -6.486849,9.6971 -6.761849,9.6837 -0.275,-0.013 -2.622535,-3.2495 -5.216745,-7.1913 z"
       style="fill:#000000;fill-opacity:0.8202247" />
    <path
       inkscape:connector-curvature="0"
       id="path3915"
       d="m 6.7465273,1045.4623 c -2.3763862,-0.7625 -2.7159767,-2.6622 -2.7312145,-15.2787 -0.012328,-10.2072 0.2909948,-12.9848 1.5561158,-14.25 1.2537874,-1.2538 3.9945426,-1.5714 13.5590174,-1.5714 7.737081,0 11.768448,0.3546 11.369554,1 -0.347668,0.5625 -5.149788,1 -10.97723,1 -5.697557,0 -11.0709994,0.2731 -11.9409825,0.607 -2.3599051,0.9056 -2.3599051,25.8804 0,26.786 2.0577493,0.7896 21.7786755,0.7896 23.8364255,0 1.297045,-0.4977 1.584543,-2.4328 1.5971,-10.75 0.0084,-5.5786 0.451531,-10.818 0.984687,-11.643 0.655035,-1.0136 0.97434,2.4825 0.984687,10.7814 0.01185,9.5081 -0.295144,12.4005 -1.359523,12.8089 -1.652451,0.6341 -25.1047963,1.0789 -26.8786367,0.5098 z m 7.8412427,-11.7379 c -5.6998814,-7.9233 -5.5712085,-10.7032 0.315114,-6.8078 l 3.944257,2.6102 8.486238,-8.5823 c 10.938346,-11.0622 13.902434,-11.4035 5.374661,-0.6189 -3.463315,4.3798 -7.894395,10.6637 -9.846843,13.9641 l -3.549906,6.0008 -4.723521,-6.5661 z"
       style="fill:#000000;fill-opacity:1" />
  </g>
</svg>
